<svg width="184" height="186" viewBox="0 0 184 186" fill="none" xmlns="http://www.w3.org/2000/svg">
<rect width="184" height="186" rx="5" fill="white"/>
<path d="M134.574 49.2673C134.539 49.2313 134.503 49.1974 134.465 49.1634L96.107 13.972C96.0198 13.8915 95.9199 13.8332 95.8273 13.7632C95.7529 13.707 95.6827 13.6477 95.604 13.5968C95.4786 13.5162 95.3488 13.4516 95.217 13.3869C95.1319 13.3456 95.05 13.301 94.9607 13.2661C94.8246 13.212 94.6864 13.1749 94.546 13.1378C94.4524 13.1124 94.361 13.0848 94.2642 13.0668C94.1175 13.0403 93.9697 13.0307 93.8219 13.0223C93.7464 13.018 93.6751 13 93.5985 13C93.5762 13 93.555 13.0064 93.5316 13.0064C93.3944 13.0095 93.2593 13.0297 93.1232 13.0477C93.0137 13.0615 92.9031 13.0689 92.7968 13.0922C92.6979 13.1145 92.6043 13.1516 92.5075 13.1823C92.3714 13.2247 92.2353 13.2618 92.1067 13.3191C92.0418 13.3477 91.9822 13.388 91.9195 13.4208C91.7664 13.4993 91.6143 13.5798 91.474 13.6784C91.4325 13.7081 91.3953 13.7452 91.3549 13.7759C91.1985 13.8968 91.0486 14.024 90.9136 14.1671C90.9061 14.1756 90.8966 14.1798 90.8891 14.1883C90.8647 14.2148 90.8487 14.2466 90.8253 14.2731C90.6945 14.4225 90.5733 14.5784 90.468 14.748C90.4382 14.7957 90.4159 14.8444 90.3893 14.8932C90.299 15.0543 90.216 15.2197 90.1501 15.3946C90.1299 15.4486 90.1171 15.5038 90.099 15.5578C90.0437 15.7295 89.9959 15.9034 89.9661 16.0857C89.9565 16.1451 89.9544 16.2044 89.948 16.2638C89.9321 16.4026 89.9055 16.5373 89.9055 16.6804V140.813C90.1107 148.08 85.7531 155.527 78.5329 160.253C68.1407 167.051 55.2528 165.876 49.8042 157.634C47.5541 154.232 46.8502 150.095 47.7668 145.667C49.0003 139.713 53.007 134.139 58.7608 130.373C61.6808 128.463 64.8241 127.15 68.1003 126.471C70.0962 126.058 71.3786 124.109 70.9639 122.118C70.5482 120.128 68.5937 118.845 66.5967 119.263C62.4082 120.131 58.4078 121.799 54.7073 124.219C47.3266 129.048 42.1597 136.323 40.5338 144.179C39.2302 150.471 40.3329 156.688 43.6378 161.685C48.1134 168.455 55.9057 172.001 64.3594 172C70.4227 171.999 76.8262 170.175 82.5864 166.406C91.9323 160.291 97.5659 150.404 97.2905 140.709V25.063L129.406 54.5271C133.413 58.5435 135.617 63.869 135.615 69.5284C135.612 75.2133 133.384 80.5568 129.341 84.5753C127.896 86.0117 127.894 88.3416 129.334 89.7811C130.056 90.5019 131.002 90.8633 131.949 90.8633C132.892 90.8633 133.835 90.5051 134.556 89.7895C139.998 84.3803 142.997 77.186 143 69.5327C143.004 61.8783 140.011 54.6808 134.574 49.2673Z" fill="url(#paint0_linear_2_14)"/>
<defs>
<linearGradient id="paint0_linear_2_14" x1="168.633" y1="185.066" x2="8.49063" y2="24.4191" gradientUnits="userSpaceOnUse">
<stop stop-color="#007FE2"/>
<stop offset="1" stop-color="#39D3B8"/>
</linearGradient>
</defs>
</svg>
